<?xml version="1.0" encoding="UTF-8"?> <svg xmlns="http://www.w3.org/2000/svg" id="LANDI_LOGO" width="236.441" height="110.511" viewBox="0 0 236.441 110.511"><rect id="Rectangle_340" data-name="Rectangle 340" width="236.441" height="110.511" fill="#fff"></rect><path id="Tracé_9292" data-name="Tracé 9292" d="M27.62,108.554V80.63H34.4v22.1H45.611v5.823Z" transform="translate(-10.42 -30.419)" fill="#141412"></path><path id="Tracé_9293" data-name="Tracé 9293" d="M76.118,113.7a5.021,5.021,0,0,1-4.2-2.236,7.473,7.473,0,0,1-5.561,2.236c-4.023,0-7.174-2.454-7.174-6.526,0-3.631,2.846-6.034,6.738-6.433l3.942-.392v-.7c0-1.245-.878-2.061-3.114-2.061a12.585,12.585,0,0,0-5.81,1.358l-.48-4.9a15.246,15.246,0,0,1,6.651-1.4c5.517,0,8.974,2.846,8.974,7.965v5.692a2.619,2.619,0,0,0,2.273,2.933Zm-6.084-9.279-2.672.262a2.541,2.541,0,0,0-2.584,2.578,1.993,1.993,0,0,0,2.1,1.93,3.114,3.114,0,0,0,3.151-2.933Z" transform="translate(-22.326 -34.953)" fill="#141412"></path><path id="Tracé_9294" data-name="Tracé 9294" d="M107.011,113.145V101.313a2.739,2.739,0,0,0-3.02-2.759c-2.018,0-3.238,1.245-3.238,2.846v11.726H94.32V93.317h5.648l.174,1.974c1.14-1.532,3.114-2.491,5.953-2.491,4.359,0,7.348,2.759,7.348,7.137v13.215Z" transform="translate(-35.583 -35.01)" fill="#141412"></path><path id="Tracé_9295" data-name="Tracé 9295" d="M145.9,106.592l-.131-1.445c-1.009,1.314-3.064,1.974-5.474,1.974a10.063,10.063,0,0,1-9.964-10.2,10.321,10.321,0,0,1,10.68-10.767,7.255,7.255,0,0,1,3.736.834V75.43h6.227v31.137Zm-1.183-13.7a5.262,5.262,0,0,0-3.587-1.245,4.955,4.955,0,0,0,0,9.889,5.019,5.019,0,0,0,3.587-1.358Z" transform="translate(-49.168 -28.457)" fill="#141412"></path><path id="Tracé_9296" data-name="Tracé 9296" d="M174.142,84.427c-1.046,0-3.282-2.186-3.282-3.282s2.236-3.325,3.282-3.325,3.325,2.236,3.325,3.325S175.238,84.427,174.142,84.427Zm-3.195,23.041v-19.8h6.476v19.828Z" transform="translate(-64.459 -29.358)" fill="#141412"></path><path id="Tracé_9297" data-name="Tracé 9297" d="M198.89,113.632h-4.814l-7.616-20h6.227l2.759,7.529a35.225,35.225,0,0,1,1.14,3.736h.087c.349-1.314.785-2.672,1.14-3.736l2.8-7.529h5.953Z" transform="translate(-70.344 -35.323)" fill="#141412"></path><path id="Tracé_9298" data-name="Tracé 9298" d="M227.008,84.427c-1.052,0-3.288-2.186-3.288-3.282s2.236-3.325,3.288-3.325,3.325,2.236,3.325,3.325S228.092,84.427,227.008,84.427Zm-3.195,23.041v-19.8h6.476v19.828Z" transform="translate(-84.401 -29.358)" fill="#141412"></path><path id="Tracé_9299" data-name="Tracé 9299" d="M247.052,113.721a12.193,12.193,0,0,1-6.4-1.663l-.567-5.6a10.624,10.624,0,0,0,6.694,2.454c1.314,0,2.1-.623,2.1-1.445,0-.965-.747-1.4-2.279-1.974-3.631-1.245-5.86-3.456-5.86-6.564,0-3.674,2.97-6.227,7.3-6.227a11.209,11.209,0,0,1,5.43,1.245L253,98.8a8.139,8.139,0,0,0-4.552-1.358c-1.133,0-1.837.573-1.837,1.4s.623,1.245,2.366,1.868c3.849,1.245,5.91,3.456,5.91,6.7C254.886,110.788,252.433,113.721,247.052,113.721Z" transform="translate(-90.577 -34.97)" fill="#141412"></path><path id="Tracé_9300" data-name="Tracé 9300" d="M273.1,84.427c-1.046,0-3.282-2.186-3.282-3.282s2.236-3.325,3.282-3.325,3.325,2.236,3.325,3.325S274.2,84.427,273.1,84.427Zm-3.195,23.041v-19.8h6.477v19.828Z" transform="translate(-101.793 -29.358)" fill="#141412"></path><path id="Tracé_9301" data-name="Tracé 9301" d="M303.348,113.7a5,5,0,0,1-4.2-2.236,7.473,7.473,0,0,1-5.561,2.236c-4.023,0-7.174-2.454-7.174-6.526,0-3.631,2.846-6.034,6.738-6.433l3.942-.392v-.7c0-1.245-.878-2.061-3.114-2.061a12.585,12.585,0,0,0-5.823,1.358l-.48-4.9a15.226,15.226,0,0,1,6.651-1.4c5.511,0,8.974,2.846,8.974,7.965v5.692a2.619,2.619,0,0,0,2.273,2.933Zm-6.084-9.279-2.672.262a2.541,2.541,0,0,0-2.584,2.578,1.993,1.993,0,0,0,2.1,1.93,3.114,3.114,0,0,0,3.151-2.933Z" transform="translate(-108.051 -34.953)" fill="#141412"></path><path id="Tracé_9302" data-name="Tracé 9302" d="M335.032,113.458l-.174-1.968c-1.14,1.532-3.114,2.491-5.953,2.491-4.359,0-7.355-2.759-7.355-7.137V93.63h6.433v11.832a2.743,2.743,0,0,0,3.02,2.759c2.011,0,3.238-1.245,3.238-2.846V93.63h6.433v19.828Z" transform="translate(-121.308 -35.323)" fill="#141412"></path><path id="Tracé_9303" data-name="Tracé 9303" d="M67.541,43.236H64.265v9.659H58.53V28.34h9.011c4.235,0,7.927,2.809,7.927,7.429S71.776,43.236,67.541,43.236Zm-.847-10.2H64.265V38.54h2.429a2.784,2.784,0,0,0,3.076-2.771C69.77,33.845,68.232,33.035,66.694,33.035Z" transform="translate(-22.081 -10.692)" fill="#141412"></path><path id="Tracé_9304" data-name="Tracé 9304" d="M101.972,57.412a4.42,4.42,0,0,1-3.7-1.962,6.551,6.551,0,0,1-4.888,1.962c-3.537,0-6.315-2.155-6.315-5.735,0-3.195,2.491-5.312,5.928-5.661l3.469-.343V45.05c0-1.077-.772-1.812-2.734-1.812a11.022,11.022,0,0,0-5.119,1.2l-.423-4.309a13.4,13.4,0,0,1,5.848-1.245c4.851,0,7.89,2.491,7.89,7.006v4.982a2.309,2.309,0,0,0,2.005,2.584Zm-5.356-8.158-2.348.23A2.226,2.226,0,0,0,92,51.751a1.744,1.744,0,0,0,1.868,1.694,2.746,2.746,0,0,0,2.771-2.578Z" transform="translate(-32.848 -14.667)" fill="#141412"></path><path id="Tracé_9305" data-name="Tracé 9305" d="M126.156,55.706c-2.348,6.122-5.194,9.7-9.391,10.742l-2.31-3.655c2.7-.884,4.359-2.491,6.041-6.47L114,39.77h5.6l2.578,6.813a34.251,34.251,0,0,1,1.077,3.388h.081a30.782,30.782,0,0,1,1.04-3.344L127,39.776h5.312Z" transform="translate(-43.008 -15.004)" fill="#141412"></path><path id="Tracé_9306" data-name="Tracé 9306" d="M151.1,57.438a10.643,10.643,0,0,1-5.6-1.463L145,51.049a9.341,9.341,0,0,0,5.891,2.155c1.152,0,1.868-.536,1.868-1.245,0-.847-.623-1.245-2.005-1.731-3.195-1.115-5.156-3.039-5.156-5.773,0-3.232,2.615-5.505,6.427-5.505a9.964,9.964,0,0,1,4.776,1.115l-.423,4.272a7.155,7.155,0,0,0-4-1.189c-1,0-1.619.5-1.619,1.245s.542,1.121,2.08,1.619c3.388,1.077,5.2,3.039,5.2,5.891C157.99,54.86,155.829,57.438,151.1,57.438Z" transform="translate(-54.703 -14.693)" fill="#141412"></path><path id="Tracé_9307" data-name="Tracé 9307" d="M191.574,55.928l-.081-.984a5.241,5.241,0,0,1-3.849,1.289,6.29,6.29,0,0,1-6.1-6.508,6.364,6.364,0,0,1,6.564-6.539,5.947,5.947,0,0,1,3.114.828V36.38h2.491V55.928Zm-.355-9.391a4.59,4.59,0,0,0-3.114-1.152,4.077,4.077,0,0,0-4.035,4.359,4.033,4.033,0,0,0,4.035,4.309,4.129,4.129,0,0,0,3.114-1.245Z" transform="translate(-68.489 -13.725)" fill="#141412"></path><path id="Tracé_9308" data-name="Tracé 9308" d="M216.758,53.052l-1.4,1.4h-7.473a4.2,4.2,0,0,0,4.421,3.736,6.464,6.464,0,0,0,3.979-1.245l-.623,2.665a7.541,7.541,0,0,1-3.705.747,6.5,6.5,0,0,1-6.67-6.508,6.3,6.3,0,0,1,6.178-6.539c3.431,0,5.38,2.416,5.38,4.727A5.313,5.313,0,0,1,216.758,53.052Zm-5.162-3.6a3.774,3.774,0,0,0-3.568,2.97h6.259a1.5,1.5,0,0,0,0-.33,2.728,2.728,0,0,0-2.69-2.64Z" transform="translate(-77.445 -17.848)" fill="#141412"></path><path id="Tracé_9309" data-name="Tracé 9309" d="M34.271,141.485a4.1,4.1,0,0,0-2.142-.585c-1.793,0-3.456,1.625-3.456,4.477s1.644,4.484,3.475,4.484a4.148,4.148,0,0,0,2.2-.511l-.149,1.5a4.72,4.72,0,0,1-2.3.436c-2.491,0-4.882-2.124-4.882-5.928s2.429-5.941,4.882-5.941a5.05,5.05,0,0,1,2.634.623Z" transform="translate(-10.19 -52.595)" fill="#141412"></path><path id="Tracé_9310" data-name="Tracé 9310" d="M46.12,151.326c-2.634,0-4.87-2.36-4.87-6.034s2.236-6.022,4.87-6.022,4.845,2.36,4.845,6.022S48.735,151.326,46.12,151.326Zm0-10.587c-1.632,0-3.2,1.681-3.2,4.571s1.569,4.577,3.2,4.577,3.182-1.681,3.182-4.577-1.594-4.558-3.182-4.558Z" transform="translate(-15.562 -52.541)" fill="#141412"></path><path id="Tracé_9311" data-name="Tracé 9311" d="M69.2,151.266l-.386-5.542c-.05-.828-.106-1.868-.125-2.8h-.037c-.274.9-.7,2.049-.99,2.833l-2.049,5.561h-.841l-2.086-5.561c-.293-.785-.691-1.9-.984-2.8h-.037c0,.99-.075,1.993-.131,2.765l-.361,5.542H59.73l.841-11.676h1.277l2.342,6c.349.9.791,2.124,1.065,3.02h.037c.274-.9.673-2.086,1.04-3.02l2.3-6h1.245l.859,11.676Z" transform="translate(-22.534 -52.662)" fill="#141412"></path><path id="Tracé_9312" data-name="Tracé 9312" d="M89.878,151.266l-.386-5.542c-.056-.828-.106-1.868-.125-2.8H89.33c-.274.9-.7,2.049-.99,2.833l-2.049,5.561H85.45l-2.086-5.561c-.293-.785-.691-1.9-.984-2.8h-.037c0,.99-.075,1.993-.131,2.765l-.367,5.542H80.4l.841-11.676h1.283l2.341,6c.349.9.785,2.124,1.059,3.02h.037c.274-.9.679-2.086,1.046-3.02l2.3-6h1.245l.866,11.676Z" transform="translate(-30.332 -52.662)" fill="#141412"></path><path id="Tracé_9313" data-name="Tracé 9313" d="M105.411,151.447c-2.236,0-3.861-1.32-3.861-3.531V139.59h1.625v8.145a2.254,2.254,0,1,0,4.5,0V139.59H109.3v8.351C109.3,150.127,107.64,151.447,105.411,151.447Z" transform="translate(-38.311 -52.662)" fill="#141412"></path><path id="Tracé_9314" data-name="Tracé 9314" d="M125.49,151.428l-4.06-5.872c-.623-.934-1.389-2.068-1.974-3.02h-.037c.037,1.046.037,2.049.037,2.908v5.8H117.88V139.59h1.32l3.736,5.53c.529.766,1.3,1.9,1.825,2.777h0c-.037-.9-.037-1.937-.037-2.759V139.59h1.594v11.832Z" transform="translate(-44.472 -52.662)" fill="#141412"></path><path id="Tracé_9315" data-name="Tracé 9315" d="M141.164,151.2l-.953-3.039h-3.419l-.971,3.039H134.27l3.8-11.782h.915l3.83,11.782Zm-2.285-7.473c-.131-.455-.255-1.04-.367-1.538h-.05c-.087.5-.237,1.084-.361,1.538l-.878,3.114h2.522Z" transform="translate(-50.655 -52.598)" fill="#141412"></path><path id="Tracé_9316" data-name="Tracé 9316" d="M154.661,151.447c-2.229,0-3.861-1.32-3.861-3.531V139.59h1.632v8.145a2.248,2.248,0,1,0,4.5,0V139.59h1.594v8.351C158.541,150.127,156.909,151.447,154.661,151.447Z" transform="translate(-56.891 -52.662)" fill="#141412"></path><path id="Tracé_9317" data-name="Tracé 9317" d="M170.25,141v10.263h-1.632V141H165.71V139.59h7.473V141Z" transform="translate(-62.516 -52.662)" fill="#141412"></path><path id="Tracé_9318" data-name="Tracé 9318" d="M180.23,148.629V136.953h5.162v1.414h-3.531v3.693h2.958v1.407h-2.958V147.2h4v1.414Zm4.608-14.821a10.774,10.774,0,0,1-2.211,2.011l-.878-.4a13.807,13.807,0,0,0,2.124-2.547.567.567,0,0,1,.436-.274,1.245,1.245,0,0,1,.772.772.866.866,0,0,1-.243.436Z" transform="translate(-67.994 -50.025)" fill="#141412"></path><path id="Tracé_9319" data-name="Tracé 9319" d="M200.152,152.93H197.91V144h2.242c2.036,0,3.886,1.445,3.886,4.471S202.188,152.93,200.152,152.93Zm-.181-7.871h-.816v6.8h.816c1.513,0,2.777-1.009,2.777-3.394S201.485,145.059,199.971,145.059Z" transform="translate(-74.664 -54.326)" fill="#141412"></path><path id="Tracé_9320" data-name="Tracé 9320" d="M210.34,152.93V144h3.954v1.077h-2.709v2.833h2.279v1.071h-2.273v2.877h3.076v1.084Z" transform="translate(-79.353 -54.326)" fill="#141412"></path><path id="Tracé_9321" data-name="Tracé 9321" d="M232.167,141.485a4.1,4.1,0,0,0-2.142-.585c-1.793,0-3.456,1.625-3.456,4.477s1.644,4.484,3.475,4.484a4.123,4.123,0,0,0,2.192-.511l-.143,1.5a4.72,4.72,0,0,1-2.3.436c-2.491,0-4.889-2.124-4.889-5.928s2.435-5.941,4.889-5.941a5.063,5.063,0,0,1,2.634.623Z" transform="translate(-84.846 -52.596)" fill="#141412"></path><path id="Tracé_9322" data-name="Tracé 9322" d="M244.054,151.326c-2.634,0-4.864-2.36-4.864-6.034s2.229-6.022,4.864-6.022,4.851,2.36,4.851,6.022S246.644,151.326,244.054,151.326Zm0-10.587c-1.625,0-3.2,1.681-3.2,4.571s1.576,4.577,3.2,4.577,3.182-1.681,3.182-4.577-1.613-4.558-3.182-4.558Z" transform="translate(-90.237 -52.541)" fill="#141412"></path><path id="Tracé_9323" data-name="Tracé 9323" d="M267.113,151.266l-.386-5.542c-.056-.828-.106-1.868-.125-2.8h-.012c-.274.9-.7,2.049-.99,2.833l-2.049,5.561h-.841l-2.086-5.561c-.293-.785-.7-1.9-.984-2.8H259.6c0,.99-.075,1.993-.131,2.765l-.367,5.542H257.66l.834-11.676h1.245l2.341,6c.349.9.785,2.124,1.059,3.02h.037c.274-.9.679-2.086,1.046-3.02l2.3-6h1.245l.859,11.676Z" transform="translate(-97.205 -52.662)" fill="#141412"></path><path id="Tracé_9324" data-name="Tracé 9324" d="M287.772,151.266l-.38-5.542c-.056-.828-.112-1.868-.131-2.8h-.037c-.274.9-.691,2.049-.984,2.833l-2.049,5.561h-.841l-2.086-5.561c-.293-.785-.7-1.9-.99-2.8h-.037c0,.99-.068,1.993-.125,2.765l-.367,5.542H278.3l.841-11.676h1.283l2.342,6c.342.9.785,2.124,1.059,3.02h.037c.274-.9.679-2.086,1.04-3.02l2.3-6h1.245l.872,11.676Z" transform="translate(-104.992 -52.662)" fill="#141412"></path><path id="Tracé_9325" data-name="Tracé 9325" d="M303.3,151.447c-2.229,0-3.855-1.32-3.855-3.531V139.59h1.625v8.145a2.254,2.254,0,1,0,4.5,0V139.59h1.588v8.351C307.166,150.127,305.54,151.447,303.3,151.447Z" transform="translate(-112.971 -52.662)" fill="#141412"></path><path id="Tracé_9326" data-name="Tracé 9326" d="M323.39,151.428l-4.066-5.872c-.623-.934-1.389-2.068-1.974-3.02h-.037c.037,1.046.037,2.049.037,2.908v5.8H315.78V139.59h1.3l3.736,5.53c.536.766,1.3,1.9,1.831,2.777h0c-.037-.9-.037-1.937-.037-2.759V139.59H324.2v11.832Z" transform="translate(-119.132 -52.662)" fill="#141412"></path><path id="Tracé_9327" data-name="Tracé 9327" d="M333.25,151.266V139.59h5.156V141h-3.525V144.7h2.958V146.1h-2.958v3.736h4v1.414Z" transform="translate(-125.722 -52.662)" fill="#141412"></path><path id="Tracé_9328" data-name="Tracé 9328" d="M346.743,151.3a4.178,4.178,0,0,1-2.341-.623l-.162-1.681a3.954,3.954,0,0,0,2.491.859,1.557,1.557,0,0,0,1.7-1.625c0-.99-.455-1.65-1.588-2.4-1.594-1.04-2.4-1.993-2.4-3.475a2.8,2.8,0,0,1,3.02-2.908,3.469,3.469,0,0,1,2.011.567l-.311,1.37a2.858,2.858,0,0,0-1.663-.529,1.376,1.376,0,0,0-1.482,1.426c0,.772.492,1.339,1.463,2.011,1.569,1.084,2.578,2.049,2.578,3.824A3.006,3.006,0,0,1,346.743,151.3Z" transform="translate(-129.868 -52.604)" fill="#141412"></path><path id="Tracé_9329" data-name="Tracé 9329" d="M270.507,12.039a.255.255,0,0,0-.237.2L269.2,16.5l-4.409.822a.255.255,0,0,0-.212.224.268.268,0,0,0,.143.274l3.736,1.9-1.868,4.789a.262.262,0,0,0,.118.293.268.268,0,0,0,.137.037.286.286,0,0,0,.181-.069l4.042-3.643,3.674,1.868a.268.268,0,0,0,.361-.343l-1.619-3.836,6.539-4.8a.268.268,0,0,0-.23-.455l-7.479,2.354-1.526-3.736a.262.262,0,0,0-.243-.162h0" transform="translate(-99.814 -4.535)" fill="#141412"></path><path id="Tracé_9330" data-name="Tracé 9330" d="M258.852,33.345a23.839,23.839,0,0,0,5.312.585,35.471,35.471,0,0,0,12.984-2.883l1.04-.4c3.388-1.245,13.968-7.205,19.635-11.6a.268.268,0,0,0,.106-.218V17.259a.274.274,0,0,0-.442-.224c-8.133,5.966-18.228,11.384-24.542,13.19a42.726,42.726,0,0,1-7.186,1.376c-.542.05-1.084.081-1.607.081-6.757,0-12.081-3.631-15.818-10.78a31.546,31.546,0,0,1-1.439-3.226.268.268,0,0,0-.305-.168.274.274,0,0,0-.23.268v5.088A.287.287,0,0,0,246.4,23C248.627,26.955,252.587,31.937,258.852,33.345Z" transform="translate(-92.942 -6.405)" fill="#141412"></path><path id="Tracé_9331" data-name="Tracé 9331" d="M262.446,40.78h.623a35.652,35.652,0,0,0,9.061-1.538c7.149-2.036,15.537-6.414,25.651-13.389a.274.274,0,0,0,.118-.23V23.885a.262.262,0,0,0-.149-.243.255.255,0,0,0-.293,0c-5.86,4.39-15.955,10.02-19.193,11.209l-.791.3-.722.28c-2.908,1.14-7.778,3.039-13.2,3.039a23,23,0,0,1-5.293-.436c-4.534-1.034-8.376-3.88-11.415-8.469a.28.28,0,0,0-.511.156v3.313a.274.274,0,0,0,.068.181A20.969,20.969,0,0,0,262.446,40.78Z" transform="translate(-92.931 -8.902)" fill="#141412"></path><path id="Tracé_9332" data-name="Tracé 9332" d="M281.041,67.879c-4.982-2.97-10.661-5.735-19.928-4.359a55.934,55.934,0,0,0-14.161,4.521.33.33,0,0,0-.187.374l.355,1.663a.318.318,0,0,0,.174.23.342.342,0,0,0,.293,0c1.389-.623,2.877-1.245,4.434-1.868a45.851,45.851,0,0,1,6.346-1.781c.953-.2,1.9-.38,2.833-.542,9.646-1.65,19.236,2.746,27.743,12.735a.33.33,0,0,0,.255.118h3.039a.343.343,0,0,0,.3-.187.33.33,0,0,0-.037-.355A43.989,43.989,0,0,0,281.041,67.879Z" transform="translate(-93.092 -23.826)" fill="#141412"></path><path id="Tracé_9333" data-name="Tracé 9333" d="M298.073,75.915c-10.425-14.186-22.419-20.681-35.67-19.3a46.083,46.083,0,0,0-11.116,2.665c-1.906.7-3.774,1.476-5.561,2.3a.336.336,0,0,0-.181.374l.361,1.725a.33.33,0,0,0,.174.23.342.342,0,0,0,.293,0,59.9,59.9,0,0,1,11.907-4.054c.722-.149,1.439-.28,2.124-.38,9.459-1.445,15.936,1.339,20.974,4.247,4.583,2.628,9.266,6.987,13.551,12.6a.349.349,0,0,0,.268.131h2.609a.336.336,0,0,0,.3-.181A.349.349,0,0,0,298.073,75.915Z" transform="translate(-92.632 -21.289)" fill="#141412"></path></svg> 